<svg xmlns="http://www.w3.org/2000/svg" viewBox="0 0 87.59 109.41"><defs><style>.cls-1{fill:#999;}</style></defs><g id="Layer_2" data-name="Layer 2"><g id="Layer_1-2" data-name="Layer 1"><path class="cls-1" d="M43.82,109.41a71.91,71.91,0,0,1-7.63-.35q-6.31-.59-12.55-1.76c-4.59-.86-9.15-1.8-13.63-3.1-2.38-.69-4.74-1.48-7-2.39A4.16,4.16,0,0,1,0,98.12a15.36,15.36,0,0,1,0-2.25C.19,93,.4,90.09.82,87.22c.81-5.66,1.59-11.34,3.41-16.8A20.94,20.94,0,0,1,6.91,65,13.78,13.78,0,0,1,13.72,60c2.11-.77,4.25-1.46,6.36-2.22a35,35,0,0,0,4.39-1.93.67.67,0,0,1,.94.17,24.28,24.28,0,0,0,12.22,7.09,27.22,27.22,0,0,0,6.49.69,24.44,24.44,0,0,0,18-7.7.81.81,0,0,1,1.14-.2,54,54,0,0,0,8.4,3.3c1.19.38,2.36.83,3.51,1.32A13.89,13.89,0,0,1,82.41,68a44.17,44.17,0,0,1,2.88,10c.55,2.93,1.08,5.86,1.45,8.82.23,1.9.45,3.8.58,5.71.11,1.61.26,3.22.27,4.83a4.13,4.13,0,0,1-3,4.46,75.41,75.41,0,0,1-9.16,3c-4.06,1.08-8.17,1.9-12.3,2.64q-4.74.86-9.53,1.38C50.37,109.17,47.1,109.36,43.82,109.41Z"/><path class="cls-1" d="M67.64,24.13C67.31,32,65.9,39.57,62.19,46.59a22.43,22.43,0,0,1-7.88,8.8,18.77,18.77,0,0,1-8,2.74,20.71,20.71,0,0,1-9-.85A19.49,19.49,0,0,1,27.53,50,35.84,35.84,0,0,1,22.2,38.61a57.23,57.23,0,0,1-2-10.93,30.79,30.79,0,0,1,1.69-14.3C24.51,6.61,29.51,2.51,36.52.82A31.9,31.9,0,0,1,47.28.19a24.87,24.87,0,0,1,8.5,2.27A19.6,19.6,0,0,1,65.86,13.64a27.29,27.29,0,0,1,1.66,7.94C67.58,22.42,67.59,23.27,67.64,24.13Z"/></g></g></svg>